<svg version="1.1" id="Layer_1" xmlns="http://www.w3.org/2000/svg" xmlns:xlink="http://www.w3.org/1999/xlink" x="0px" y="0px"
	 width="100%" viewBox="0 0 1200 1200" enable-background="new 0 0 1200 1200" xml:space="preserve">
<path fill="#000000" opacity="1.000000" stroke="none" 
	d="
M609.000000,1201.000000 
	C406.000000,1201.000000 203.500000,1201.000000 1.000000,1201.000000 
	C1.000000,801.000000 1.000000,401.000000 1.000000,1.000000 
	C401.000000,1.000000 801.000000,1.000000 1201.000000,1.000000 
	C1201.000000,401.000000 1201.000000,801.000000 1201.000000,1201.000000 
	C1003.833313,1201.000000 806.666687,1201.000000 609.000000,1201.000000 
M411.610199,421.036407 
	C411.206116,421.329468 410.842590,421.765778 410.391693,421.893524 
	C405.529144,423.270874 401.183075,424.910797 400.934418,431.213440 
	C400.689697,437.417419 405.412415,438.968292 409.531799,440.761841 
	C420.834625,445.683014 432.302704,450.223114 443.679199,454.976685 
	C466.587372,464.548645 489.457550,474.211975 512.381714,483.745361 
	C537.814758,494.322021 563.266846,504.854187 588.767029,515.267456 
	C594.211670,517.490845 599.416626,521.400635 605.945923,518.603760 
	C616.689026,514.001892 627.464478,509.474457 638.255127,504.984955 
	C653.630310,498.588043 669.051025,492.300415 684.415894,485.879242 
	C699.347656,479.639099 714.222473,473.262817 729.144531,466.999298 
	C736.588257,463.874786 744.081604,460.868500 751.831909,457.694305 
	C751.916809,459.050110 751.994080,459.709015 751.994202,460.367920 
	C752.000183,497.355865 752.020020,534.343872 751.940613,571.331604 
	C751.936584,573.196350 751.387695,575.217773 750.553345,576.898743 
	C741.253967,595.635010 731.835632,614.312256 722.476807,633.019165 
	C717.995422,641.976746 721.022583,646.999817 730.847717,646.999939 
	C751.007812,647.000244 771.167908,647.000183 791.328003,646.999817 
	C800.025085,646.999695 803.282227,641.664734 799.369446,633.836365 
	C789.730957,614.552307 780.068176,595.280151 770.503235,575.959656 
	C769.669800,574.276245 769.065735,572.272217 769.061829,570.415710 
	C768.979980,531.428650 769.029297,492.441223 768.934265,453.454163 
	C768.927917,450.851837 769.928589,449.839081 772.154114,448.963501 
	C779.448730,446.093628 786.674927,443.046814 793.895752,439.993286 
	C798.039185,438.241180 801.091431,435.655792 801.031433,430.575592 
	C800.970642,425.420715 797.084290,423.737610 793.396667,422.181519 
	C782.924805,417.762756 772.295837,413.717407 761.810303,409.329956 
	C736.394775,398.695404 711.062317,387.861664 685.627380,377.273926 
	C658.715027,366.071198 631.738098,355.022888 604.734131,344.042938 
	C602.765015,343.242310 600.189758,342.941040 598.173218,343.467804 
	C594.647339,344.388916 591.327026,346.110962 587.937439,347.537506 
	C558.560364,359.901337 529.209839,372.328644 499.806091,384.628815 
	C470.698242,396.805176 441.537903,408.855988 411.610199,421.036407 
M568.602417,570.962524 
	C575.267822,573.700317 581.959839,576.375244 588.590759,579.194275 
	C594.701904,581.792419 600.678223,584.726135 607.576599,581.796143 
	C622.461121,575.474243 637.363220,569.192688 652.295166,562.983765 
	C673.284119,554.256165 694.297302,545.586914 715.321594,536.944824 
	C720.227783,534.928162 722.482971,529.801880 720.414124,524.907349 
	C718.442810,520.243591 714.205994,518.790527 709.077332,520.975403 
	C707.747375,521.541931 706.339600,521.924744 705.006226,522.484009 
	C674.000122,535.489075 643.004578,548.519165 611.993286,561.511841 
	C605.942627,564.046875 600.446289,566.251526 593.244385,562.983398 
	C570.940674,552.862183 548.220215,543.652283 525.593811,534.251343 
	C498.682526,523.070251 471.696472,512.069153 444.754242,500.962311 
	C439.860840,498.945007 435.881409,500.244659 433.821991,504.686157 
	C431.590149,509.499542 433.302856,514.465576 437.987305,516.497986 
	C444.454803,519.304077 450.928864,522.098083 457.445709,524.786743 
	C482.752899,535.227661 508.085480,545.606934 533.393250,556.046326 
	C544.939758,560.809265 556.450623,565.658630 568.602417,570.962524 
M809.041260,830.435730 
	C814.728638,821.462097 816.480652,811.589905 816.032532,801.115356 
	C815.488831,788.405212 811.500061,777.317688 800.973877,769.545410 
	C789.837402,761.322693 777.573975,760.912354 764.943054,765.593567 
	C761.967285,766.696533 759.212708,768.396790 755.831360,770.084229 
	C755.831360,754.575073 755.831360,739.947083 755.831360,724.719177 
	C747.112427,726.571472 738.714661,728.355530 730.300354,730.143127 
	C730.300354,731.667969 730.300354,733.739685 730.300354,736.203979 
	C734.008057,736.203979 737.418518,736.203979 741.149231,736.203979 
	C741.149231,773.373047 741.149231,810.140564 741.149231,846.578918 
	C746.982971,848.697205 748.912964,844.641479 750.768188,840.708435 
	C766.650879,855.692444 796.888367,850.288208 809.041260,830.435730 
M451.725128,773.974731 
	C450.240051,772.659180 448.783356,771.309875 447.264954,770.033997 
	C440.959381,764.735596 438.688660,755.647461 442.695221,747.716064 
	C449.457520,734.329224 468.341644,736.243408 476.290070,742.857727 
	C484.040497,749.307251 487.808960,757.845581 488.209229,767.709045 
	C490.657532,767.709045 492.725922,767.709045 494.718018,767.709045 
	C494.718018,756.005798 494.718018,744.595520 494.718018,733.104858 
	C491.803284,733.104858 489.170746,733.104858 486.362030,733.104858 
	C486.089996,734.448853 485.830322,735.731812 485.443939,737.640747 
	C474.785156,729.794495 462.987793,730.614685 451.443237,731.101257 
	C437.150543,731.703613 424.293884,747.466431 425.977234,761.341370 
	C427.492798,773.833557 434.237396,782.328369 445.203949,788.065491 
	C456.281982,793.860779 467.607758,799.355591 478.006409,806.221802 
	C486.428833,811.783203 490.366333,823.275879 483.069794,833.383118 
	C477.524445,841.064697 469.514435,842.773071 460.682373,841.983215 
	C447.644989,840.817200 436.725067,833.592407 434.023956,819.565308 
	C432.815216,813.288208 432.884949,813.274780 425.773804,814.707031 
	C426.268707,825.651794 426.766571,836.661621 427.270782,847.812378 
	C430.203522,847.812378 432.964142,847.812378 435.704681,847.812378 
	C435.961639,846.421509 436.184387,845.215698 436.454803,843.751892 
	C437.859375,844.056274 439.067352,844.078796 440.043335,844.566040 
	C452.061768,850.566101 464.954559,850.708862 477.343597,847.752747 
	C498.390900,842.730896 504.282043,826.951965 499.870056,808.297913 
	C498.013672,800.449158 492.002838,795.026428 485.307495,791.184143 
	C474.606049,785.042969 463.439026,779.713013 451.725128,773.974731 
M312.000000,795.392090 
	C312.332886,798.300659 312.540558,801.229980 313.019104,804.114380 
	C315.979156,821.955627 325.670410,835.267639 341.423431,843.657959 
	C360.826691,853.992615 393.236572,850.732422 408.467163,831.132202 
	C412.721710,825.657043 413.051331,825.913208 408.032288,822.175171 
	C404.576233,825.392639 401.384064,828.879517 397.687805,831.707520 
	C387.235809,839.704224 374.931183,841.974182 362.526794,839.539795 
	C350.084106,837.097900 341.023804,828.875122 335.136871,817.487183 
	C326.709381,801.184692 326.633789,784.028809 332.250214,767.279053 
	C337.764435,750.833984 350.460510,738.601685 370.178497,738.770630 
	C385.183075,738.899231 397.867676,749.306396 400.696625,764.104614 
	C401.804718,769.901184 403.859161,770.762939 408.649048,769.718079 
	C408.649048,757.472534 408.649048,745.267151 408.649048,733.331116 
	C405.214355,733.331116 402.134796,733.331116 398.921387,733.331116 
	C398.921387,735.616882 398.921387,737.571167 398.921387,739.500061 
	C396.367310,738.296509 393.982269,737.022339 391.487152,736.022949 
	C380.921631,731.791260 370.154999,730.036133 358.677338,731.887268 
	C344.901123,734.109070 333.450104,740.030151 325.042419,751.136597 
	C315.393524,763.882629 311.188385,778.440247 312.000000,795.392090 
M663.719788,769.025574 
	C661.664246,771.335205 659.281433,773.433533 657.624146,776.000366 
	C654.564941,780.738281 655.746521,788.642578 659.817444,789.767944 
	C662.642578,790.548889 666.993591,790.779907 668.735840,789.170532 
	C670.641479,787.410400 671.556396,782.851257 670.705261,780.224182 
	C669.312012,775.923340 671.684082,774.846436 674.183350,772.931946 
	C678.787537,769.404968 684.100525,769.548828 689.239563,770.148926 
	C693.309509,770.624268 697.202759,772.714233 697.929810,777.401978 
	C699.118164,785.064636 699.892273,792.791443 700.832825,800.423645 
	C694.885193,801.035095 690.160889,801.316956 685.505005,802.039795 
	C674.238525,803.789062 664.100281,807.812805 656.030701,816.384216 
	C650.521729,822.235901 649.833679,836.537964 655.967896,842.550049 
	C662.911316,849.355164 678.630249,851.722229 688.478455,846.787048 
	C692.590332,844.726624 696.473450,842.209717 699.672791,840.356628 
	C701.109741,842.772095 702.222717,846.586609 703.643311,846.704895 
	C711.023254,847.319031 718.481628,846.990845 725.678467,846.990845 
	C725.678467,844.295166 725.678467,842.222046 725.678467,839.807434 
	C721.596313,839.807434 717.832275,839.807434 714.028992,839.807434 
	C714.387390,837.377197 714.948792,835.301514 714.959167,833.223083 
	C715.034973,818.064941 715.262146,802.899475 714.873535,787.750916 
	C714.713806,781.523560 713.339172,775.406799 708.882507,770.281067 
	C700.213562,760.310669 688.860046,762.669312 678.119812,763.616394 
	C673.449890,764.028076 669.014099,767.095093 663.719788,769.025574 
M570.000000,810.498535 
	C570.000000,815.163818 570.067139,819.830200 569.986816,824.494080 
	C569.780212,836.487915 568.326111,838.613159 558.954102,840.708923 
	C559.045898,842.417480 559.138794,844.146973 559.220886,845.674805 
	C586.063599,845.674805 612.462402,845.674805 639.428589,845.674805 
	C639.428589,834.339050 639.428589,823.319092 639.428589,812.229980 
	C637.454590,812.229980 635.385376,812.229980 632.999939,812.229980 
	C632.999939,814.921570 633.063293,817.389709 632.988770,819.853699 
	C632.689880,829.730591 625.922241,838.441711 617.184937,838.867981 
	C606.260315,839.401001 595.289978,838.996216 583.802429,838.996216 
	C584.225403,833.504700 584.924438,828.477844 584.947449,823.447937 
	C585.062378,798.289429 585.024048,773.130005 584.976624,747.971069 
	C584.968628,743.719543 586.581848,740.932007 590.909973,739.960815 
	C592.579529,739.586121 594.195190,738.971436 595.707520,738.505493 
	C595.707520,736.661377 595.707520,734.925659 595.707520,733.284424 
	C583.330688,733.284424 571.247986,733.284424 559.289246,733.284424 
	C559.289246,735.646484 559.289246,737.718811 559.289246,740.182861 
	C562.984131,740.182861 566.395813,740.182861 570.000000,740.182861 
	C570.000000,763.555237 570.000000,786.527222 570.000000,810.498535 
M846.951843,774.577820 
	C851.906311,769.107117 858.696045,768.659973 864.679749,770.491943 
	C874.561157,773.517273 877.708618,782.411682 879.328613,791.772461 
	C881.208801,791.772461 882.951599,791.772461 884.785950,791.772461 
	C884.785950,782.453735 884.785950,773.363281 884.785950,764.137329 
	C882.277039,764.137329 879.979614,764.137329 877.682190,764.137329 
	C877.902100,764.547363 878.122009,764.957336 878.341919,765.367371 
	C877.249512,765.913269 875.694519,767.226013 875.135071,766.888611 
	C868.171082,762.687195 860.531555,762.672241 852.849792,763.026184 
	C844.223755,763.423584 837.433411,767.482666 833.601868,775.068726 
	C829.713257,782.767639 829.107483,790.818726 834.118896,798.706726 
	C837.824036,804.538635 843.463623,807.382690 849.409424,810.000977 
	C856.146973,812.967834 862.879883,815.945923 869.590881,818.972168 
	C874.404419,821.142883 876.676514,825.420166 876.831177,830.214661 
	C876.987183,835.048767 873.347107,837.972595 869.186401,839.982239 
	C854.539246,847.056824 837.700317,836.183167 836.649536,820.189697 
	C834.913086,820.189697 833.161438,820.189697 831.000000,820.189697 
	C831.000000,827.114258 830.999878,833.903992 831.000000,840.693726 
	C831.000061,848.374817 831.000183,848.374817 838.783875,847.673279 
	C838.954163,846.504395 839.130249,845.295898 839.370911,843.644165 
	C850.322144,849.862549 861.761292,850.544983 873.242981,847.869690 
	C883.485718,845.483093 893.571594,834.606873 890.156982,820.892090 
	C888.304932,813.453308 883.929077,808.564026 877.591003,805.310791 
	C869.756775,801.289673 861.497803,798.098511 853.643494,794.113037 
	C843.778442,789.107239 842.145081,784.360229 846.951843,774.577820 
z"/>
<path fill="#FFFFFF" opacity="1.000000" stroke="none" 
	d="
M412.005402,420.999146 
	C441.537903,408.855988 470.698242,396.805176 499.806091,384.628815 
	C529.209839,372.328644 558.560364,359.901337 587.937439,347.537506 
	C591.327026,346.110962 594.647339,344.388916 598.173218,343.467804 
	C600.189758,342.941040 602.765015,343.242310 604.734131,344.042938 
	C631.738098,355.022888 658.715027,366.071198 685.627380,377.273926 
	C711.062317,387.861664 736.394775,398.695404 761.810303,409.329956 
	C772.295837,413.717407 782.924805,417.762756 793.396667,422.181519 
	C797.084290,423.737610 800.970642,425.420715 801.031433,430.575592 
	C801.091431,435.655792 798.039185,438.241180 793.895752,439.993286 
	C786.674927,443.046814 779.448730,446.093628 772.154114,448.963501 
	C769.928589,449.839081 768.927917,450.851837 768.934265,453.454163 
	C769.029297,492.441223 768.979980,531.428650 769.061829,570.415710 
	C769.065735,572.272217 769.669800,574.276245 770.503235,575.959656 
	C780.068176,595.280151 789.730957,614.552307 799.369446,633.836365 
	C803.282227,641.664734 800.025085,646.999695 791.328003,646.999817 
	C771.167908,647.000183 751.007812,647.000244 730.847717,646.999939 
	C721.022583,646.999817 717.995422,641.976746 722.476807,633.019165 
	C731.835632,614.312256 741.253967,595.635010 750.553345,576.898743 
	C751.387695,575.217773 751.936584,573.196350 751.940613,571.331604 
	C752.020020,534.343872 752.000183,497.355865 751.994202,460.367920 
	C751.994080,459.709015 751.916809,459.050110 751.831909,457.694305 
	C744.081604,460.868500 736.588257,463.874786 729.144531,466.999298 
	C714.222473,473.262817 699.347656,479.639099 684.415894,485.879242 
	C669.051025,492.300415 653.630310,498.588043 638.255127,504.984955 
	C627.464478,509.474457 616.689026,514.001892 605.945923,518.603760 
	C599.416626,521.400635 594.211670,517.490845 588.767029,515.267456 
	C563.266846,504.854187 537.814758,494.322021 512.381714,483.745361 
	C489.457550,474.211975 466.587372,464.548645 443.679199,454.976685 
	C432.302704,450.223114 420.834625,445.683014 409.531799,440.761841 
	C405.412415,438.968292 400.689697,437.417419 400.934418,431.213440 
	C401.183075,424.910797 405.529144,423.270874 410.391693,421.893524 
	C410.842590,421.765778 411.206116,421.329468 412.005402,420.999146 
z"/>
<path fill="#FFFFFF" opacity="1.000000" stroke="none" 
	d="
M568.290039,570.715637 
	C556.450623,565.658630 544.939758,560.809265 533.393250,556.046326 
	C508.085480,545.606934 482.752899,535.227661 457.445709,524.786743 
	C450.928864,522.098083 444.454803,519.304077 437.987305,516.497986 
	C433.302856,514.465576 431.590149,509.499542 433.821991,504.686157 
	C435.881409,500.244659 439.860840,498.945007 444.754242,500.962311 
	C471.696472,512.069153 498.682526,523.070251 525.593811,534.251343 
	C548.220215,543.652283 570.940674,552.862183 593.244385,562.983398 
	C600.446289,566.251526 605.942627,564.046875 611.993286,561.511841 
	C643.004578,548.519165 674.000122,535.489075 705.006226,522.484009 
	C706.339600,521.924744 707.747375,521.541931 709.077332,520.975403 
	C714.205994,518.790527 718.442810,520.243591 720.414124,524.907349 
	C722.482971,529.801880 720.227783,534.928162 715.321594,536.944824 
	C694.297302,545.586914 673.284119,554.256165 652.295166,562.983765 
	C637.363220,569.192688 622.461121,575.474243 607.576599,581.796143 
	C600.678223,584.726135 594.701904,581.792419 588.590759,579.194275 
	C581.959839,576.375244 575.267822,573.700317 568.290039,570.715637 
z"/>
<path fill="#FFFFFF" opacity="1.000000" stroke="none" 
	d="
M808.786865,830.709290 
	C796.888367,850.288208 766.650879,855.692444 750.768188,840.708435 
	C748.912964,844.641479 746.982971,848.697205 741.149231,846.578918 
	C741.149231,810.140564 741.149231,773.373047 741.149231,736.203979 
	C737.418518,736.203979 734.008057,736.203979 730.300354,736.203979 
	C730.300354,733.739685 730.300354,731.667969 730.300354,730.143127 
	C738.714661,728.355530 747.112427,726.571472 755.831360,724.719177 
	C755.831360,739.947083 755.831360,754.575073 755.831360,770.084229 
	C759.212708,768.396790 761.967285,766.696533 764.943054,765.593567 
	C777.573975,760.912354 789.837402,761.322693 800.973877,769.545410 
	C811.500061,777.317688 815.488831,788.405212 816.032532,801.115356 
	C816.480652,811.589905 814.728638,821.462097 808.786865,830.709290 
M771.745728,842.000000 
	C779.640564,842.471313 786.358215,840.594727 791.129456,833.542786 
	C800.305542,819.980652 800.428040,805.576599 796.115479,790.461365 
	C793.973267,782.953430 790.518677,776.146851 783.195618,773.292847 
	C774.073486,769.737732 765.280151,771.975647 758.019592,778.688660 
	C756.805847,779.810913 756.105591,782.067505 756.085876,783.810364 
	C755.930908,797.445801 755.981140,811.083801 756.006470,824.720947 
	C756.024109,834.245239 761.332336,840.390381 771.745728,842.000000 
z"/>
<path fill="#FFFFFF" opacity="1.000000" stroke="none" 
	d="
M452.096985,774.007446 
	C463.439026,779.713013 474.606049,785.042969 485.307495,791.184143 
	C492.002838,795.026428 498.013672,800.449158 499.870056,808.297913 
	C504.282043,826.951965 498.390900,842.730896 477.343597,847.752747 
	C464.954559,850.708862 452.061768,850.566101 440.043335,844.566040 
	C439.067352,844.078796 437.859375,844.056274 436.454803,843.751892 
	C436.184387,845.215698 435.961639,846.421509 435.704681,847.812378 
	C432.964142,847.812378 430.203522,847.812378 427.270782,847.812378 
	C426.766571,836.661621 426.268707,825.651794 425.773804,814.707031 
	C432.884949,813.274780 432.815216,813.288208 434.023956,819.565308 
	C436.725067,833.592407 447.644989,840.817200 460.682373,841.983215 
	C469.514435,842.773071 477.524445,841.064697 483.069794,833.383118 
	C490.366333,823.275879 486.428833,811.783203 478.006409,806.221802 
	C467.607758,799.355591 456.281982,793.860779 445.203949,788.065491 
	C434.237396,782.328369 427.492798,773.833557 425.977234,761.341370 
	C424.293884,747.466431 437.150543,731.703613 451.443237,731.101257 
	C462.987793,730.614685 474.785156,729.794495 485.443939,737.640747 
	C485.830322,735.731812 486.089996,734.448853 486.362030,733.104858 
	C489.170746,733.104858 491.803284,733.104858 494.718018,733.104858 
	C494.718018,744.595520 494.718018,756.005798 494.718018,767.709045 
	C492.725922,767.709045 490.657532,767.709045 488.209229,767.709045 
	C487.808960,757.845581 484.040497,749.307251 476.290070,742.857727 
	C468.341644,736.243408 449.457520,734.329224 442.695221,747.716064 
	C438.688660,755.647461 440.959381,764.735596 447.264954,770.033997 
	C448.783356,771.309875 450.240051,772.659180 452.096985,774.007446 
z"/>
<path fill="#FFFFFF" opacity="1.000000" stroke="none" 
	d="
M312.000000,794.908142 
	C311.188385,778.440247 315.393524,763.882629 325.042419,751.136597 
	C333.450104,740.030151 344.901123,734.109070 358.677338,731.887268 
	C370.154999,730.036133 380.921631,731.791260 391.487152,736.022949 
	C393.982269,737.022339 396.367310,738.296509 398.921387,739.500061 
	C398.921387,737.571167 398.921387,735.616882 398.921387,733.331116 
	C402.134796,733.331116 405.214355,733.331116 408.649048,733.331116 
	C408.649048,745.267151 408.649048,757.472534 408.649048,769.718079 
	C403.859161,770.762939 401.804718,769.901184 400.696625,764.104614 
	C397.867676,749.306396 385.183075,738.899231 370.178497,738.770630 
	C350.460510,738.601685 337.764435,750.833984 332.250214,767.279053 
	C326.633789,784.028809 326.709381,801.184692 335.136871,817.487183 
	C341.023804,828.875122 350.084106,837.097900 362.526794,839.539795 
	C374.931183,841.974182 387.235809,839.704224 397.687805,831.707520 
	C401.384064,828.879517 404.576233,825.392639 408.032288,822.175171 
	C413.051331,825.913208 412.721710,825.657043 408.467163,831.132202 
	C393.236572,850.732422 360.826691,853.992615 341.423431,843.657959 
	C325.670410,835.267639 315.979156,821.955627 313.019104,804.114380 
	C312.540558,801.229980 312.332886,798.300659 312.000000,794.908142 
z"/>
<path fill="#FFFFFF" opacity="1.000000" stroke="none" 
	d="
M664.095886,768.990845 
	C669.014099,767.095093 673.449890,764.028076 678.119812,763.616394 
	C688.860046,762.669312 700.213562,760.310669 708.882507,770.281067 
	C713.339172,775.406799 714.713806,781.523560 714.873535,787.750916 
	C715.262146,802.899475 715.034973,818.064941 714.959167,833.223083 
	C714.948792,835.301514 714.387390,837.377197 714.028992,839.807434 
	C717.832275,839.807434 721.596313,839.807434 725.678467,839.807434 
	C725.678467,842.222046 725.678467,844.295166 725.678467,846.990845 
	C718.481628,846.990845 711.023254,847.319031 703.643311,846.704895 
	C702.222717,846.586609 701.109741,842.772095 699.672791,840.356628 
	C696.473450,842.209717 692.590332,844.726624 688.478455,846.787048 
	C678.630249,851.722229 662.911316,849.355164 655.967896,842.550049 
	C649.833679,836.537964 650.521729,822.235901 656.030701,816.384216 
	C664.100281,807.812805 674.238525,803.789062 685.505005,802.039795 
	C690.160889,801.316956 694.885193,801.035095 700.832825,800.423645 
	C699.892273,792.791443 699.118164,785.064636 697.929810,777.401978 
	C697.202759,772.714233 693.309509,770.624268 689.239563,770.148926 
	C684.100525,769.548828 678.787537,769.404968 674.183350,772.931946 
	C671.684082,774.846436 669.312012,775.923340 670.705261,780.224182 
	C671.556396,782.851257 670.641479,787.410400 668.735840,789.170532 
	C666.993591,790.779907 662.642578,790.548889 659.817444,789.767944 
	C655.746521,788.642578 654.564941,780.738281 657.624146,776.000366 
	C659.281433,773.433533 661.664246,771.335205 664.095886,768.990845 
M668.000977,830.043640 
	C668.771057,834.868652 671.712097,838.102783 676.302429,838.876404 
	C683.910095,840.158508 690.878906,838.127869 696.648193,832.812866 
	C697.948914,831.614563 699.774780,830.072510 699.848511,828.612427 
	C700.190002,821.847534 699.999512,815.055725 699.999512,807.327820 
	C694.315735,808.294189 689.051270,808.546875 684.233459,810.145569 
	C674.933777,813.231384 666.791138,817.248718 668.000977,830.043640 
z"/>
<path fill="#FFFFFF" opacity="1.000000" stroke="none" 
	d="
M570.000000,809.998840 
	C570.000000,786.527222 570.000000,763.555237 570.000000,740.182861 
	C566.395813,740.182861 562.984131,740.182861 559.289246,740.182861 
	C559.289246,737.718811 559.289246,735.646484 559.289246,733.284424 
	C571.247986,733.284424 583.330688,733.284424 595.707520,733.284424 
	C595.707520,734.925659 595.707520,736.661377 595.707520,738.505493 
	C594.195190,738.971436 592.579529,739.586121 590.909973,739.960815 
	C586.581848,740.932007 584.968628,743.719543 584.976624,747.971069 
	C585.024048,773.130005 585.062378,798.289429 584.947449,823.447937 
	C584.924438,828.477844 584.225403,833.504700 583.802429,838.996216 
	C595.289978,838.996216 606.260315,839.401001 617.184937,838.867981 
	C625.922241,838.441711 632.689880,829.730591 632.988770,819.853699 
	C633.063293,817.389709 632.999939,814.921570 632.999939,812.229980 
	C635.385376,812.229980 637.454590,812.229980 639.428589,812.229980 
	C639.428589,823.319092 639.428589,834.339050 639.428589,845.674805 
	C612.462402,845.674805 586.063599,845.674805 559.220886,845.674805 
	C559.138794,844.146973 559.045898,842.417480 558.954102,840.708923 
	C568.326111,838.613159 569.780212,836.487915 569.986816,824.494080 
	C570.067139,819.830200 570.000000,815.163818 570.000000,809.998840 
z"/>
<path fill="#FFFFFF" opacity="1.000000" stroke="none" 
	d="
M846.661865,774.840210 
	C842.145081,784.360229 843.778442,789.107239 853.643494,794.113037 
	C861.497803,798.098511 869.756775,801.289673 877.591003,805.310791 
	C883.929077,808.564026 888.304932,813.453308 890.156982,820.892090 
	C893.571594,834.606873 883.485718,845.483093 873.242981,847.869690 
	C861.761292,850.544983 850.322144,849.862549 839.370911,843.644165 
	C839.130249,845.295898 838.954163,846.504395 838.783875,847.673279 
	C831.000183,848.374817 831.000061,848.374817 831.000000,840.693726 
	C830.999878,833.903992 831.000000,827.114258 831.000000,820.189697 
	C833.161438,820.189697 834.913086,820.189697 836.649536,820.189697 
	C837.700317,836.183167 854.539246,847.056824 869.186401,839.982239 
	C873.347107,837.972595 876.987183,835.048767 876.831177,830.214661 
	C876.676514,825.420166 874.404419,821.142883 869.590881,818.972168 
	C862.879883,815.945923 856.146973,812.967834 849.409424,810.000977 
	C843.463623,807.382690 837.824036,804.538635 834.118896,798.706726 
	C829.107483,790.818726 829.713257,782.767639 833.601868,775.068726 
	C837.433411,767.482666 844.223755,763.423584 852.849792,763.026184 
	C860.531555,762.672241 868.171082,762.687195 875.135071,766.888611 
	C875.694519,767.226013 877.249512,765.913269 878.341919,765.367371 
	C878.122009,764.957336 877.902100,764.547363 877.682190,764.137329 
	C879.979614,764.137329 882.277039,764.137329 884.785950,764.137329 
	C884.785950,773.363281 884.785950,782.453735 884.785950,791.772461 
	C882.951599,791.772461 881.208801,791.772461 879.328613,791.772461 
	C877.708618,782.411682 874.561157,773.517273 864.679749,770.491943 
	C858.696045,768.659973 851.906311,769.107117 846.661865,774.840210 
z"/>
<path fill="#000000" opacity="1.000000" stroke="none" 
	d="
M771.297791,842.000000 
	C761.332336,840.390381 756.024109,834.245239 756.006470,824.720947 
	C755.981140,811.083801 755.930908,797.445801 756.085876,783.810364 
	C756.105591,782.067505 756.805847,779.810913 758.019592,778.688660 
	C765.280151,771.975647 774.073486,769.737732 783.195618,773.292847 
	C790.518677,776.146851 793.973267,782.953430 796.115479,790.461365 
	C800.428040,805.576599 800.305542,819.980652 791.129456,833.542786 
	C786.358215,840.594727 779.640564,842.471313 771.297791,842.000000 
z"/>
<path fill="#000000" opacity="1.000000" stroke="none" 
	d="
M668.000488,829.610840 
	C666.791138,817.248718 674.933777,813.231384 684.233459,810.145569 
	C689.051270,808.546875 694.315735,808.294189 699.999512,807.327820 
	C699.999512,815.055725 700.190002,821.847534 699.848511,828.612427 
	C699.774780,830.072510 697.948914,831.614563 696.648193,832.812866 
	C690.878906,838.127869 683.910095,840.158508 676.302429,838.876404 
	C671.712097,838.102783 668.771057,834.868652 668.000488,829.610840 
z"/>
</svg>